{
	"asset":{
		"generator":"Khronos glTF Blender I/O v3.5.30",
		"version":"2.0"
	},
	"extensionsUsed":[
		"KHR_materials_specular",
		"KHR_materials_ior"
	],
	"scene":0,
	"scenes":[
		{
			"name":"Scene",
			"nodes":[
				0,
				1
			]
		}
	],
	"nodes":[
		{
			"mesh":0,
			"name":"base",
			"scale":[
				2.5491299629211426,
				0.31789731979370117,
				2.5491299629211426
			],
			"translation":[
				0,
				-0.7448711395263672,
				0
			]
		},
		{
			"mesh":1,
			"name":"fiber"
		}
	],
	"materials":[
		{
			"doubleSided":true,
			"emissiveFactor":[
				0.005602672696113586,
				0.005602672696113586,
				0.005602672696113586
			],
			"extensions":{
				"KHR_materials_specular":{
					"specularColorFactor":[
						2.371357614441398,
						2.371357614441398,
						2.371357614441398
					]
				},
				"KHR_materials_ior":{
					"ior":1.4500000476837158
				}
			},
			"name":"lamp-body",
			"pbrMetallicRoughness":{
				"baseColorFactor":[
					0,
					0,
					0,
					1
				],
				"roughnessFactor":0.12204723805189133
			}
		},
		{
			"alphaMode":"BLEND",
			"doubleSided":true,
			"extensions":{
				"KHR_materials_specular":{
					"specularColorFactor":[
						0.3233669217249309,
						0.3233669217249309,
						0.3233669217249309
					]
				},
				"KHR_materials_ior":{
					"ior":1.4500000476837158
				}
			},
			"name":"lamp-fiber",
			"pbrMetallicRoughness":{
				"baseColorFactor":[
					0.19924849271774292,
					0.19924849271774292,
					0.19924849271774292,
					1
				],
				"roughnessFactor":0.3636363744735718
			}
		}
	],
	"meshes":[
		{
			"name":"Cylinder",
			"primitives":[
				{
					"attributes":{
						"POSITION":0,
						"TEXCOORD_0":1,
						"NORMAL":2
					},
					"indices":3,
					"material":0
				}
			]
		},
		{
			"name":"fiber",
			"primitives":[
				{
					"attributes":{
						"POSITION":4,
						"TEXCOORD_0":5,
						"NORMAL":6
					},
					"indices":7,
					"material":1
				}
			]
		}
	],
	"accessors":[
		{
			"bufferView":0,
			"componentType":5126,
			"count":132,
			"max":[
				0.9926295280456543,
				1.0028371810913086,
				1.002837061882019
			],
			"min":[
				-0.9926295280456543,
				-1.0028371810913086,
				-1.002837061882019
			],
			"type":"VEC3"
		},
		{
			"bufferView":1,
			"componentType":5126,
			"count":132,
			"type":"VEC2"
		},
		{
			"bufferView":2,
			"componentType":5126,
			"count":132,
			"type":"VEC3"
		},
		{
			"bufferView":3,
			"componentType":5123,
			"count":252,
			"type":"SCALAR"
		},
		{
			"bufferView":4,
			"componentType":5126,
			"count":28608,
			"max":[
				10.540955543518066,
				10.941088676452637,
				10.56864070892334
			],
			"min":[
				-10.54095458984375,
				0.3682822585105896,
				-10.568642616271973
			],
			"type":"VEC3"
		},
		{
			"bufferView":5,
			"componentType":5126,
			"count":28608,
			"type":"VEC2"
		},
		{
			"bufferView":6,
			"componentType":5126,
			"count":28608,
			"type":"VEC3"
		},
		{
			"bufferView":7,
			"componentType":5123,
			"count":42912,
			"type":"SCALAR"
		}
	],
	"bufferViews":[
		{
			"buffer":0,
			"byteLength":1584,
			"byteOffset":0,
			"target":34962
		},
		{
			"buffer":0,
			"byteLength":1056,
			"byteOffset":1584,
			"target":34962
		},
		{
			"buffer":0,
			"byteLength":1584,
			"byteOffset":2640,
			"target":34962
		},
		{
			"buffer":0,
			"byteLength":504,
			"byteOffset":4224,
			"target":34963
		},
		{
			"buffer":0,
			"byteLength":343296,
			"byteOffset":4728,
			"target":34962
		},
		{
			"buffer":0,
			"byteLength":228864,
			"byteOffset":348024,
			"target":34962
		},
		{
			"buffer":0,
			"byteLength":343296,
			"byteOffset":576888,
			"target":34962
		},
		{
			"buffer":0,
			"byteLength":85824,
			"byteOffset":920184,
			"target":34963
		}
	],
	"buffers":[
		{
			"byteLength":1006008,
			"uri":"data:application/octet-stream;base64,"
		}
	]
}
