{
	"asset":{
		"generator":"Khronos glTF Blender I/O v3.5.30",
		"version":"2.0"
	},
	"extensionsUsed":[
		"KHR_materials_specular",
		"KHR_materials_ior"
	],
	"scene":0,
	"scenes":[
		{
			"name":"Scene",
			"nodes":[
				0,
				1
			]
		}
	],
	"nodes":[
		{
			"mesh":0,
			"name":"lamp",
			"scale":[
				1.5428380966186523,
				1.5428380966186523,
				1.5428380966186523
			],
			"translation":[
				0,
				-0.43634915351867676,
				0
			]
		},
		{
			"mesh":1,
			"name":"fiber-endglow"
		}
	],
	"materials":[
		{
			"doubleSided":true,
			"emissiveFactor":[
				0.969936192035675,
				1,
				1
			],
			"extensions":{
				"KHR_materials_specular":{
					"specularColorFactor":[
						0,
						0,
						0
					]
				},
				"KHR_materials_ior":{
					"ior":1.4500000476837158
				}
			},
			"name":"lamb-light",
			"pbrMetallicRoughness":{
				"baseColorFactor":[
					1,
					0.933512806892395,
					0.9626210331916809,
					1
				],
				"roughnessFactor":0
			}
		}
	],
	"meshes":[
		{
			"name":"Sphere",
			"primitives":[
				{
					"attributes":{
						"POSITION":0,
						"TEXCOORD_0":1,
						"NORMAL":2
					},
					"indices":3,
					"material":0
				}
			]
		},
		{
			"name":"fiber.002",
			"primitives":[
				{
					"attributes":{
						"POSITION":4,
						"TEXCOORD_0":5,
						"NORMAL":6
					},
					"indices":7,
					"material":0
				}
			]
		}
	],
	"accessors":[
		{
			"bufferView":0,
			"componentType":5126,
			"count":137,
			"max":[
				0.9898214340209961,
				1,
				0.9999999403953552
			],
			"min":[
				-0.9898213148117065,
				0,
				-0.9999998211860657
			],
			"type":"VEC3"
		},
		{
			"bufferView":1,
			"componentType":5126,
			"count":137,
			"type":"VEC2"
		},
		{
			"bufferView":2,
			"componentType":5126,
			"count":137,
			"type":"VEC3"
		},
		{
			"bufferView":3,
			"componentType":5123,
			"count":594,
			"type":"SCALAR"
		},
		{
			"bufferView":4,
			"componentType":5126,
			"count":28709,
			"max":[
				10.54529094696045,
				10.943977355957031,
				10.572460174560547
			],
			"min":[
				-10.545289993286133,
				2.6350107192993164,
				-10.57246208190918
			],
			"type":"VEC3"
		},
		{
			"bufferView":5,
			"componentType":5126,
			"count":28709,
			"type":"VEC2"
		},
		{
			"bufferView":6,
			"componentType":5126,
			"count":28709,
			"type":"VEC3"
		},
		{
			"bufferView":7,
			"componentType":5123,
			"count":63156,
			"type":"SCALAR"
		}
	],
	"bufferViews":[
		{
			"buffer":0,
			"byteLength":1644,
			"byteOffset":0,
			"target":34962
		},
		{
			"buffer":0,
			"byteLength":1096,
			"byteOffset":1644,
			"target":34962
		},
		{
			"buffer":0,
			"byteLength":1644,
			"byteOffset":2740,
			"target":34962
		},
		{
			"buffer":0,
			"byteLength":1188,
			"byteOffset":4384,
			"target":34963
		},
		{
			"buffer":0,
			"byteLength":344508,
			"byteOffset":5572,
			"target":34962
		},
		{
			"buffer":0,
			"byteLength":229672,
			"byteOffset":350080,
			"target":34962
		},
		{
			"buffer":0,
			"byteLength":344508,
			"byteOffset":579752,
			"target":34962
		},
		{
			"buffer":0,
			"byteLength":126312,
			"byteOffset":924260,
			"target":34963
		}
	],
	"buffers":[
		{
			"byteLength":1050572,
			"uri":"data:application/octet-stream;base64,"
		}
	]
}
