{
	"asset":{
		"generator":"Khronos glTF Blender I/O v3.5.30",
		"version":"2.0"
	},
	"extensionsUsed":[
		"KHR_materials_specular",
		"KHR_materials_ior"
	],
	"scene":0,
	"scenes":[
		{
			"name":"Scene",
			"nodes":[
				0,
				1,
				2,
				3
			]
		}
	],
	"nodes":[
		{
			"mesh":0,
			"name":"lamp",
			"scale":[
				1.5428380966186523,
				1.5428380966186523,
				1.5428380966186523
			],
			"translation":[
				0,
				-0.43634915351867676,
				0
			]
		},
		{
			"mesh":1,
			"name":"base",
			"scale":[
				2.5491299629211426,
				0.31789731979370117,
				2.5491299629211426
			],
			"translation":[
				0,
				-0.7448711395263672,
				0
			]
		},
		{
			"mesh":2,
			"name":"fiber"
		},
		{
			"mesh":3,
			"name":"fiber-endglow"
		}
	],
	"materials":[
		{
			"doubleSided":true,
			"emissiveFactor":[
				0.3790930211544037,
				0.8876099586486816,
				1
			],
			"extensions":{
				"KHR_materials_specular":{
					"specularColorFactor":[
						0,
						0,
						0
					]
				},
				"KHR_materials_ior":{
					"ior":1.4500000476837158
				}
			},
			"name":"lamb-light",
			"pbrMetallicRoughness":{
				"baseColorFactor":[
					0.9816115498542786,
					0.9067515730857849,
					1,
					1
				],
				"roughnessFactor":0
			}
		},
		{
			"doubleSided":true,
			"emissiveFactor":[
				0.005602672696113586,
				0.005602672696113586,
				0.005602672696113586
			],
			"name":"lamp-body",
			"pbrMetallicRoughness":{
				"baseColorFactor":[
					0.800000011920929,
					0.800000011920929,
					0.800000011920929,
					1
				],
				"roughnessFactor":0.051181092858314514
			}
		},
		{
			"doubleSided":true,
			"emissiveFactor":[
				0.2265680432319641,
				0.2265680432319641,
				0.2265680432319641
			],
			"name":"lamp-fiber-solid",
			"pbrMetallicRoughness":{
				"baseColorFactor":[
					0.800000011920929,
					0.800000011920929,
					0.800000011920929,
					1
				],
				"metallicFactor":0,
				"roughnessFactor":0.5
			}
		}
	],
	"meshes":[
		{
			"name":"Sphere",
			"primitives":[
				{
					"attributes":{
						"POSITION":0,
						"TEXCOORD_0":1,
						"NORMAL":2
					},
					"indices":3,
					"material":0
				}
			]
		},
		{
			"name":"Cylinder",
			"primitives":[
				{
					"attributes":{
						"POSITION":4,
						"TEXCOORD_0":5,
						"NORMAL":6
					},
					"indices":7,
					"material":1
				}
			]
		},
		{
			"name":"fiber",
			"primitives":[
				{
					"attributes":{
						"POSITION":8,
						"TEXCOORD_0":9,
						"NORMAL":10
					},
					"indices":11,
					"material":2
				}
			]
		},
		{
			"name":"fiber.002",
			"primitives":[
				{
					"attributes":{
						"POSITION":12,
						"TEXCOORD_0":13,
						"NORMAL":14
					},
					"indices":15,
					"material":0
				}
			]
		}
	],
	"accessors":[
		{
			"bufferView":0,
			"componentType":5126,
			"count":137,
			"max":[
				0.9898214340209961,
				1,
				0.9999999403953552
			],
			"min":[
				-0.9898213148117065,
				0,
				-0.9999998211860657
			],
			"type":"VEC3"
		},
		{
			"bufferView":1,
			"componentType":5126,
			"count":137,
			"type":"VEC2"
		},
		{
			"bufferView":2,
			"componentType":5126,
			"count":137,
			"type":"VEC3"
		},
		{
			"bufferView":3,
			"componentType":5123,
			"count":594,
			"type":"SCALAR"
		},
		{
			"bufferView":4,
			"componentType":5126,
			"count":90,
			"max":[
				0.9926295280456543,
				1.0028371810913086,
				1.002837061882019
			],
			"min":[
				-0.9926295280456543,
				-1.0028371810913086,
				-1.002837061882019
			],
			"type":"VEC3"
		},
		{
			"bufferView":5,
			"componentType":5126,
			"count":90,
			"type":"VEC2"
		},
		{
			"bufferView":6,
			"componentType":5126,
			"count":90,
			"type":"VEC3"
		},
		{
			"bufferView":7,
			"componentType":5123,
			"count":252,
			"type":"SCALAR"
		},
		{
			"bufferView":8,
			"componentType":5126,
			"count":28800,
			"max":[
				10.540955543518066,
				10.941088676452637,
				10.56864070892334
			],
			"min":[
				-10.54095458984375,
				0.3682822585105896,
				-10.568642616271973
			],
			"type":"VEC3"
		},
		{
			"bufferView":9,
			"componentType":5126,
			"count":28800,
			"type":"VEC2"
		},
		{
			"bufferView":10,
			"componentType":5126,
			"count":28800,
			"type":"VEC3"
		},
		{
			"bufferView":11,
			"componentType":5123,
			"count":43200,
			"type":"SCALAR"
		},
		{
			"bufferView":12,
			"componentType":5126,
			"count":28709,
			"max":[
				10.54529094696045,
				10.943977355957031,
				10.572460174560547
			],
			"min":[
				-10.545289993286133,
				2.6350107192993164,
				-10.57246208190918
			],
			"type":"VEC3"
		},
		{
			"bufferView":13,
			"componentType":5126,
			"count":28709,
			"type":"VEC2"
		},
		{
			"bufferView":14,
			"componentType":5126,
			"count":28709,
			"type":"VEC3"
		},
		{
			"bufferView":15,
			"componentType":5123,
			"count":63156,
			"type":"SCALAR"
		}
	],
	"bufferViews":[
		{
			"buffer":0,
			"byteLength":1644,
			"byteOffset":0,
			"target":34962
		},
		{
			"buffer":0,
			"byteLength":1096,
			"byteOffset":1644,
			"target":34962
		},
		{
			"buffer":0,
			"byteLength":1644,
			"byteOffset":2740,
			"target":34962
		},
		{
			"buffer":0,
			"byteLength":1188,
			"byteOffset":4384,
			"target":34963
		},
		{
			"buffer":0,
			"byteLength":1080,
			"byteOffset":5572,
			"target":34962
		},
		{
			"buffer":0,
			"byteLength":720,
			"byteOffset":6652,
			"target":34962
		},
		{
			"buffer":0,
			"byteLength":1080,
			"byteOffset":7372,
			"target":34962
		},
		{
			"buffer":0,
			"byteLength":504,
			"byteOffset":8452,
			"target":34963
		},
		{
			"buffer":0,
			"byteLength":345600,
			"byteOffset":8956,
			"target":34962
		},
		{
			"buffer":0,
			"byteLength":230400,
			"byteOffset":354556,
			"target":34962
		},
		{
			"buffer":0,
			"byteLength":345600,
			"byteOffset":584956,
			"target":34962
		},
		{
			"buffer":0,
			"byteLength":86400,
			"byteOffset":930556,
			"target":34963
		},
		{
			"buffer":0,
			"byteLength":344508,
			"byteOffset":1016956,
			"target":34962
		},
		{
			"buffer":0,
			"byteLength":229672,
			"byteOffset":1361464,
			"target":34962
		},
		{
			"buffer":0,
			"byteLength":344508,
			"byteOffset":1591136,
			"target":34962
		},
		{
			"buffer":0,
			"byteLength":126312,
			"byteOffset":1935644,
			"target":34963
		}
	],
	"buffers":[
		{
			"byteLength":2061956,
			"uri":"data:application/octet-stream;base64,"
		}
	]
}
