<?xml version="1.0" encoding="UTF-8" standalone="no"?>
<!DOCTYPE svg PUBLIC "-//W3C//DTD SVG 1.1//EN" "http://www.w3.org/Graphics/SVG/1.1/DTD/svg11.dtd">
<svg xmlns="http://www.w3.org/2000/svg" version="1.1" viewBox="0.00 0.00 467.00 465.00">
<path fill="currentColor" d="
  M 10.05 186.39
  Q 12.08 180.91 14.70 175.83
  C 22.59 160.53 33.19 148.15 45.43 135.91
  Q 93.65 87.75 143.19 38.27
  Q 154.70 26.78 168.49 18.35
  Q 178.22 12.40 186.38 9.31
  Q 204.78 2.36 220.92 1.32
  Q 230.32 0.72 243.04 1.14
  Q 247.44 1.29 251.62 1.94
  Q 256.53 2.71 260.89 3.65
  C 284.90 8.84 306.36 21.76 323.63 39.06
  Q 376.70 92.23 425.81 141.25
  C 439.14 154.56 450.71 171.13 456.96 189.17
  Q 462.09 203.98 463.33 217.77
  Q 463.98 225.00 463.89 235.33
  Q 463.80 245.24 462.47 253.05
  Q 458.98 273.58 450.80 289.27
  Q 444.78 300.81 435.49 312.13
  Q 430.58 318.11 422.22 326.44
  Q 371.91 376.60 323.15 425.44
  Q 311.38 437.23 295.94 446.53
  C 281.59 455.18 264.97 460.41 248.52 462.22
  Q 240.12 463.14 228.73 462.89
  Q 218.16 462.65 209.47 461.05
  Q 193.51 458.12 180.34 451.95
  Q 159.87 442.38 141.98 424.49
  Q 90.46 372.99 38.82 321.32
  C 26.53 309.01 15.23 292.48 9.20 275.19
  Q 3.74 259.56 2.67 246.03
  Q 1.50 231.28 2.70 217.53
  Q 3.99 202.78 10.05 186.39
  Z
  M 19.44 210.59
  C 18.37 215.88 18.08 221.44 17.49 226.83
  Q 16.96 231.69 17.46 236.98
  Q 18.55 248.59 19.43 253.15
  Q 24.42 279.08 40.72 299.41
  Q 44.76 304.45 50.85 310.48
  Q 102.03 361.12 153.14 412.84
  Q 160.37 420.17 166.00 424.61
  Q 186.62 440.91 212.49 445.71
  Q 217.15 446.57 228.10 447.52
  Q 233.87 448.02 240.21 447.43
  Q 248.86 446.61 253.97 445.60
  Q 286.64 439.14 308.58 417.07
  Q 366.05 359.30 417.60 307.85
  Q 428.62 296.85 435.10 284.81
  Q 440.53 274.70 443.10 267.03
  Q 445.39 260.19 446.58 253.00
  Q 447.62 246.61 448.49 238.48
  Q 449.12 232.57 448.56 227.38
  C 447.76 219.95 447.31 213.17 445.59 206.02
  Q 443.89 198.92 442.90 196.21
  C 437.22 180.69 428.83 167.11 416.16 154.48
  Q 358.45 96.93 308.61 46.91
  Q 297.41 35.68 282.30 27.98
  Q 278.16 25.87 274.46 24.40
  Q 258.52 18.10 241.66 17.03
  Q 238.69 16.84 235.65 16.29
  C 232.75 15.77 230.09 16.66 227.21 16.81
  Q 191.77 18.69 165.25 40.04
  Q 159.36 44.78 151.88 52.36
  Q 101.39 103.49 52.27 151.99
  Q 44.52 159.65 39.66 165.86
  Q 24.62 185.07 19.44 210.59
  Z"
/>
<path fill="currentColor" d="
  M 410.4331 157.8935
  A 104.74 104.74 0.0 0 1 410.4331 306.0182
  L 307.0682 409.3831
  A 104.74 104.74 0.0 0 1 158.9435 409.3831
  L 55.6069 306.0465
  A 104.74 104.74 0.0 0 1 55.6069 157.9218
  L 158.9718 54.5569
  A 104.74 104.74 0.0 0 1 307.0965 54.5569
  L 410.4331 157.8935
  Z
  M 231.76 34.23
  C 226.00 34.45 220.15 35.05 214.52 36.12
  Q 205.63 37.80 195.97 41.83
  Q 185.69 46.10 177.49 52.23
  Q 171.72 56.54 162.93 65.40
  Q 107.83 120.96 61.68 166.67
  Q 49.43 178.82 42.87 194.49
  Q 27.65 230.89 42.25 268.13
  Q 48.57 284.23 62.66 298.27
  Q 149.46 384.77 163.20 398.92
  Q 171.24 407.20 177.78 412.04
  Q 186.45 418.45 196.28 422.47
  Q 232.33 437.20 268.45 422.89
  Q 285.67 416.07 298.74 402.90
  Q 352.83 348.41 404.34 297.23
  Q 416.67 284.97 423.04 269.80
  Q 438.64 232.64 423.39 195.33
  Q 416.68 178.91 403.57 165.81
  Q 306.25 68.52 306.19 68.46
  Q 298.61 60.67 291.88 54.88
  Q 282.31 46.65 269.80 41.57
  Q 258.30 36.90 247.93 35.36
  Q 238.61 33.97 231.76 34.23
  Z"
/>
<path fill="currentColor" d="
  M 202.69 71.16
  Q 207.73 69.38 213.28 67.95
  Q 219.05 66.45 225.99 66.23
  Q 237.81 65.84 245.55 66.66
  Q 253.64 67.51 264.91 71.77
  C 277.95 76.70 288.81 85.70 297.66 96.27
  Q 306.79 107.19 311.97 122.96
  Q 315.81 134.69 316.11 147.17
  A 0.88 0.88 0.0 0 1 315.02 148.05
  Q 239.20 129.59 163.77 145.23
  Q 158.20 146.39 151.80 148.09
  Q 149.94 148.58 149.95 146.65
  C 149.99 138.43 151.62 130.16 154.19 122.25
  Q 155.48 118.28 158.89 111.12
  Q 161.91 104.80 164.83 100.76
  C 169.94 93.68 177.05 86.76 183.84 81.43
  Q 192.27 74.83 202.69 71.16
  Z"
/>
<path fill="currentColor" d="
  M 73.30 198.83
  Q 74.68 195.16 76.67 191.76
  Q 88.53 171.47 106.88 160.67
  Q 126.00 149.42 148.29 148.88
  A 0.77 0.77 0.0 0 1 149.06 149.83
  Q 146.49 160.27 144.53 171.18
  Q 131.62 242.97 149.14 313.92
  A 0.91 0.90 83.3 0 1 148.26 315.05
  C 136.84 315.05 125.42 312.27 114.83 307.46
  C 101.11 301.23 90.51 291.88 81.68 280.09
  Q 76.05 272.56 72.43 263.18
  Q 68.70 253.51 67.72 244.98
  Q 66.72 236.23 67.31 223.36
  C 67.59 217.24 68.98 211.72 70.57 205.98
  C 71.26 203.50 72.39 201.26 73.30 198.83
  Z"
/>
<circle fill="currentColor" cx="233.00" cy="232.00" r="83.12"/>
<path fill="currentColor" d="
  M 317.62 148.98
  C 334.10 149.11 351.52 154.69 364.14 163.91
  Q 383.37 177.97 392.18 197.56
  Q 394.70 203.15 396.92 211.69
  Q 398.61 218.19 398.83 226.26
  Q 399.16 238.37 398.34 245.25
  Q 397.32 253.86 392.92 264.75
  C 386.83 279.84 373.63 294.62 360.60 302.48
  C 353.24 306.91 344.40 310.79 335.80 312.82
  Q 326.40 315.03 317.66 315.09
  A 0.75 0.74 -83.5 0 1 316.94 314.17
  Q 332.86 249.24 323.44 183.80
  Q 321.02 166.96 316.92 149.87
  A 0.72 0.71 83.4 0 1 317.62 148.98
  Z"
/>
<path fill="currentColor" d="
  M 199.30 391.44
  C 187.72 386.91 177.19 377.92 168.64 368.14
  Q 164.41 363.29 161.62 358.31
  Q 154.70 345.96 151.63 332.14
  Q 149.97 324.70 149.97 316.71
  A 0.81 0.80 6.6 0 1 150.96 315.93
  Q 226.68 334.41 302.25 318.76
  Q 308.39 317.49 314.36 315.96
  Q 316.02 315.53 316.04 317.25
  Q 316.10 324.37 314.35 332.25
  C 313.63 335.48 312.89 338.93 311.74 342.07
  Q 308.28 351.55 303.22 360.16
  C 298.60 368.03 291.39 374.96 284.01 381.06
  Q 276.60 387.18 268.22 390.83
  Q 256.67 395.87 246.45 397.20
  Q 239.00 398.17 227.35 397.85
  Q 219.21 397.62 213.24 396.03
  Q 206.21 394.15 199.30 391.44
  Z"
/>
</svg>
