<?xml version="1.0" standalone="no"?>
<!DOCTYPE svg PUBLIC "-//W3C//DTD SVG 20010904//EN"
 "http://www.w3.org/TR/2001/REC-SVG-20010904/DTD/svg10.dtd">
<svg version="1.0" xmlns="http://www.w3.org/2000/svg"
 width="500.000000pt" height="500.000000pt" viewBox="0 0 500.000000 500.000000"
 preserveAspectRatio="xMidYMid meet">
<metadata>
Created by potrace 1.14, written by Peter Selinger 2001-2017
</metadata>
<g transform="translate(0.000000,500.000000) scale(0.100000,-0.100000)"
fill="#000000" stroke="none">
<path d="M946 4495 c-41 -13 -42 -26 -41 -293 1 -192 3 -225 18 -239 15 -15
140 -16 1556 -16 1430 0 1542 1 1559 16 17 16 19 36 18 267 -1 268 -1 269 -51
270 -11 1 -697 2 -1524 3 -981 1 -1515 -1 -1535 -8z m3007 -260 c-1 -88 -2
-165 -2 -172 -1 -9 -339 -12 -1470 -12 l-1469 0 -2 168 c0 92 2 169 4 172 3 3
666 5 1473 5 l1467 -1 -1 -160z"/>
<path d="M644 3688 c-3 -10 -9 -18 -13 -18 -4 0 -7 -121 -7 -270 1 -237 3
-271 18 -286 15 -15 65 -17 520 -18 l503 -1 0 -1020 0 -1020 -545 0 c-300 -1
-550 1 -557 3 -9 3 -12 101 -12 400 0 515 1 494 -16 515 -12 17 -31 19 -227
17 -117 0 -218 -1 -225 -2 -35 -4 -38 -44 -38 -566 1 -348 -3 -509 -10 -504
-5 3 -4 -1 2 -9 10 -12 10 -18 1 -27 -7 -7 -8 -12 -2 -12 11 0 12 -75 2 -86
-3 -3 -2 -19 2 -35 5 -18 5 -29 -1 -29 -6 0 -6 -7 -1 -17 10 -20 9 -84 -2
-101 -4 -7 -3 -12 1 -12 5 0 9 -10 10 -21 1 -12 7 -27 12 -32 8 -8 354 -11
1091 -11 1020 -1 1081 0 1086 17 3 9 9 17 13 17 5 0 9 559 9 1242 0 684 1
1255 1 1269 l1 26 243 1 242 0 0 -1274 c0 -1205 1 -1274 18 -1286 14 -10 228
-13 1081 -12 1005 0 1065 1 1081 18 17 16 18 47 20 361 1 188 5 348 9 354 4 6
3 11 -2 11 -10 0 -9 30 1 47 4 6 3 15 -3 18 -8 5 -7 11 1 21 9 11 9 14 -1 14
-9 0 -9 4 1 17 10 11 10 14 1 9 -15 -9 -16 6 0 22 9 9 9 12 -1 12 -11 0 -11 3
0 17 8 9 10 14 4 11 -12 -7 -13 222 -1 240 4 7 3 12 -2 12 -10 0 -9 30 2 48 4
6 3 12 -2 12 -10 0 -9 30 2 48 4 6 3 12 -2 12 -10 0 -9 30 2 48 4 7 2 12 -5
12 -8 0 -7 5 2 17 10 11 10 14 2 9 -16 -9 -17 6 -1 22 9 9 9 12 -1 12 -7 0
-10 4 -6 9 7 12 -24 43 -36 36 -5 -4 -9 -3 -9 2 0 4 -88 8 -195 8 -107 0 -195
-4 -195 -9 0 -5 -6 -3 -13 3 -11 8 -18 6 -33 -10 -18 -20 -19 -44 -20 -467 -1
-246 -2 -451 -3 -457 -1 -11 -1085 -14 -1097 -3 -5 5 -9 1789 -5 2005 l1 31
496 0 c450 -1 497 1 512 16 15 15 17 49 18 285 0 230 -2 271 -15 287 -16 19
-56 19 -1859 19 -1746 0 -1843 -1 -1848 -17z m3617 -131 c0 -61 1 -244 0 -302
l-1 -51 -1765 0 -1765 0 -1 31 c-1 58 -1 290 0 327 l1 37 1765 0 1765 0 1 -42z
m-2110 -481 c3 -62 4 -2414 1 -2427 -3 -14 -27 -16 -193 -17 l-189 -1 0 1233
0 1233 190 0 c186 0 190 0 191 -21z m1082 -1200 c0 -672 -1 -1226 -2 -1233 -1
-8 -55 -11 -191 -11 l-190 -1 0 1233 0 1232 193 1 192 0 -2 -1221z m1394 21
c6 -4 14 -3 18 3 4 6 12 7 18 3 15 -9 87 -11 82 -3 -5 9 33 6 41 -3 4 -4 13
-2 19 3 9 7 16 5 25 -5 10 -13 13 -101 12 -408 0 -216 -1 -399 -1 -407 -1 -13
-22 -15 -138 -14 -76 1 -143 2 -148 3 -11 1 -16 41 -5 41 3 0 4 178 2 396 l-2
395 21 -6 c13 -4 19 -3 16 2 -7 11 23 11 40 0z m-4365 -22 c5 -7 8 -7 8 0 0
14 170 14 171 1 1 -6 2 -192 3 -413 1 -264 -2 -403 -9 -404 -5 -1 -71 -2 -146
-3 l-136 -1 0 410 c0 228 3 412 8 416 15 9 94 5 101 -6z m1319 -925 l55 0 0
-157 -1 -158 -742 -2 -743 -2 -1 80 c0 101 0 205 0 222 1 10 36 13 163 13 90
-1 199 1 243 4 44 3 280 4 525 3 245 -1 470 -3 501 -3z m3243 -3 c10 -4 13
-43 12 -159 l-1 -153 -742 -2 -743 -2 0 159 c0 157 0 159 23 162 36 5 1437 0
1451 -5z"/>
<path d="M4451 2758 c-29 -10 -39 -43 -38 -114 1 -32 -3 -65 -7 -73 -6 -9 -5
-12 1 -8 12 7 10 -54 -2 -73 -5 -7 -4 -11 1 -7 5 3 8 -32 7 -81 -2 -133 -15
-128 269 -127 128 1 243 4 254 8 12 4 25 18 28 30 3 12 6 109 6 215 0 170 -2
197 -17 215 -17 21 -25 22 -250 23 -127 0 -241 -3 -252 -8z m413 -126 c-1 -15
-3 -29 -4 -32 -1 -3 -1 -9 0 -15 7 -29 4 -91 -5 -97 -7 -6 -7 -10 0 -15 6 -5
10 -27 10 -50 l0 -43 -172 0 c-173 0 -173 0 -174 23 0 12 -1 74 -1 137 l0 115
118 5 c66 3 144 4 174 2 53 -3 56 -5 54 -30z"/>
<path d="M52 2735 c-23 -20 -23 -23 -23 -230 -1 -199 0 -210 20 -226 17 -14
52 -16 260 -16 231 0 241 1 258 21 16 19 18 43 18 224 0 111 -3 202 -7 202 -5
0 -8 5 -8 11 0 30 -27 34 -260 34 -220 0 -236 -1 -258 -20z m422 -117 c-1 -16
3 -28 9 -28 6 0 5 -5 -1 -13 -7 -8 -7 -18 -2 -27 5 -8 5 -21 0 -30 -5 -9 -5
-22 0 -30 4 -7 4 -23 0 -35 -5 -14 -4 -27 3 -34 8 -8 8 -11 -1 -11 -6 0 -9 -7
-5 -16 3 -9 1 -19 -5 -23 -5 -3 -84 -6 -174 -5 l-163 0 -1 135 c0 74 1 137 3
140 1 3 78 6 170 5 l168 -1 -1 -27z"/>
</g>
</svg>
